M48
;DRILL file {KiCad 4.0.7-e2-6376~58~ubuntu16.04.1} date Mon May 21 13:57:43 2018
;FORMAT={-:-/ absolute / inch / decimal}
FMAT,2
INCH,TZ
T1C0.016
T2C0.040
%
G90
G05
M72
T1
X4.7Y-3.84
X4.7Y-3.97
X4.7Y-4.07
X4.7Y-4.18
X4.7Y-4.28
X4.74Y-4.28
X4.77Y-4.02
X4.8Y-3.87
X4.8Y-4.27
X4.86Y-4.12
X4.88Y-3.85
X4.91Y-3.93
X4.91Y-4.12
X4.92Y-4.01
X4.99Y-3.89
X5.03Y-4.22
X5.08Y-4.14
X5.1Y-4.22
X5.12Y-4.04
X5.13Y-3.89
X5.13Y-4.07
X5.2137Y-3.935
X5.22Y-4.32
X5.23Y-4.27
X5.24Y-4.08
X5.29Y-4.22
X5.3Y-4.04
X5.3Y-4.08
X5.34Y-4.04
X5.35Y-4.22
X5.35Y-4.27
X5.35Y-4.32
X5.37Y-3.8
X5.37Y-3.83
X5.37Y-4.15
X5.43Y-3.8
X5.43Y-3.83
X5.46Y-4.1
X5.49Y-3.8
X5.49Y-3.83
X5.49Y-3.95
X5.49Y-4.
X5.49Y-4.25
X5.52Y-4.09
X5.52Y-4.27
T2
X4.99Y-3.8
X5.09Y-3.8
X5.19Y-3.8
X5.29Y-3.8
X5.58Y-3.92
X5.58Y-4.02
X5.58Y-4.12
X5.58Y-4.22
T0
M30
