G04 #@! TF.FileFunction,Legend,Bot*
%FSLAX46Y46*%
G04 Gerber Fmt 4.6, Leading zero omitted, Abs format (unit mm)*
G04 Created by KiCad (PCBNEW 4.0.7-e2-6376~58~ubuntu16.04.1) date Mon May 21 14:16:18 2018*
%MOMM*%
%LPD*%
G01*
G04 APERTURE LIST*
%ADD10C,0.100000*%
%ADD11C,0.200000*%
%ADD12C,0.300000*%
G04 APERTURE END LIST*
D10*
D11*
X136873619Y-97980476D02*
X136826000Y-98028095D01*
X136778381Y-98123333D01*
X136778381Y-98361429D01*
X136826000Y-98456667D01*
X136873619Y-98504286D01*
X136968857Y-98551905D01*
X137064095Y-98551905D01*
X137206952Y-98504286D01*
X137778381Y-97932857D01*
X137778381Y-98551905D01*
X136778381Y-99170952D02*
X136778381Y-99266191D01*
X136826000Y-99361429D01*
X136873619Y-99409048D01*
X136968857Y-99456667D01*
X137159333Y-99504286D01*
X137397429Y-99504286D01*
X137587905Y-99456667D01*
X137683143Y-99409048D01*
X137730762Y-99361429D01*
X137778381Y-99266191D01*
X137778381Y-99170952D01*
X137730762Y-99075714D01*
X137683143Y-99028095D01*
X137587905Y-98980476D01*
X137397429Y-98932857D01*
X137159333Y-98932857D01*
X136968857Y-98980476D01*
X136873619Y-99028095D01*
X136826000Y-99075714D01*
X136778381Y-99170952D01*
X137778381Y-99932857D02*
X137111714Y-99932857D01*
X137206952Y-99932857D02*
X137159333Y-99980476D01*
X137111714Y-100075714D01*
X137111714Y-100218572D01*
X137159333Y-100313810D01*
X137254571Y-100361429D01*
X137778381Y-100361429D01*
X137254571Y-100361429D02*
X137159333Y-100409048D01*
X137111714Y-100504286D01*
X137111714Y-100647143D01*
X137159333Y-100742381D01*
X137254571Y-100790000D01*
X137778381Y-100790000D01*
X137492667Y-101218571D02*
X137492667Y-101694762D01*
X137778381Y-101123333D02*
X136778381Y-101456666D01*
X137778381Y-101790000D01*
X137778381Y-103028095D02*
X137730762Y-102932857D01*
X137683143Y-102885238D01*
X137587905Y-102837619D01*
X137302190Y-102837619D01*
X137206952Y-102885238D01*
X137159333Y-102932857D01*
X137111714Y-103028095D01*
X137111714Y-103170953D01*
X137159333Y-103266191D01*
X137206952Y-103313810D01*
X137302190Y-103361429D01*
X137587905Y-103361429D01*
X137683143Y-103313810D01*
X137730762Y-103266191D01*
X137778381Y-103170953D01*
X137778381Y-103028095D01*
X137111714Y-104218572D02*
X137778381Y-104218572D01*
X137111714Y-103790000D02*
X137635524Y-103790000D01*
X137730762Y-103837619D01*
X137778381Y-103932857D01*
X137778381Y-104075715D01*
X137730762Y-104170953D01*
X137683143Y-104218572D01*
X137111714Y-104551905D02*
X137111714Y-104932857D01*
X136778381Y-104694762D02*
X137635524Y-104694762D01*
X137730762Y-104742381D01*
X137778381Y-104837619D01*
X137778381Y-104932857D01*
X137111714Y-105266191D02*
X138111714Y-105266191D01*
X137159333Y-105266191D02*
X137111714Y-105361429D01*
X137111714Y-105551906D01*
X137159333Y-105647144D01*
X137206952Y-105694763D01*
X137302190Y-105742382D01*
X137587905Y-105742382D01*
X137683143Y-105694763D01*
X137730762Y-105647144D01*
X137778381Y-105551906D01*
X137778381Y-105361429D01*
X137730762Y-105266191D01*
X137111714Y-106599525D02*
X137778381Y-106599525D01*
X137111714Y-106170953D02*
X137635524Y-106170953D01*
X137730762Y-106218572D01*
X137778381Y-106313810D01*
X137778381Y-106456668D01*
X137730762Y-106551906D01*
X137683143Y-106599525D01*
X137111714Y-106932858D02*
X137111714Y-107313810D01*
X136778381Y-107075715D02*
X137635524Y-107075715D01*
X137730762Y-107123334D01*
X137778381Y-107218572D01*
X137778381Y-107313810D01*
X138811714Y-98028095D02*
X139811714Y-98028095D01*
X138859333Y-98028095D02*
X138811714Y-98123333D01*
X138811714Y-98313810D01*
X138859333Y-98409048D01*
X138906952Y-98456667D01*
X139002190Y-98504286D01*
X139287905Y-98504286D01*
X139383143Y-98456667D01*
X139430762Y-98409048D01*
X139478381Y-98313810D01*
X139478381Y-98123333D01*
X139430762Y-98028095D01*
X139430762Y-99313810D02*
X139478381Y-99218572D01*
X139478381Y-99028095D01*
X139430762Y-98932857D01*
X139335524Y-98885238D01*
X138954571Y-98885238D01*
X138859333Y-98932857D01*
X138811714Y-99028095D01*
X138811714Y-99218572D01*
X138859333Y-99313810D01*
X138954571Y-99361429D01*
X139049810Y-99361429D01*
X139145048Y-98885238D01*
X139478381Y-99790000D02*
X138811714Y-99790000D01*
X139002190Y-99790000D02*
X138906952Y-99837619D01*
X138859333Y-99885238D01*
X138811714Y-99980476D01*
X138811714Y-100075715D01*
X139478381Y-101647144D02*
X139478381Y-101170953D01*
X138478381Y-101170953D01*
X138954571Y-101980477D02*
X138954571Y-102313811D01*
X139478381Y-102456668D02*
X139478381Y-101980477D01*
X138478381Y-101980477D01*
X138478381Y-102456668D01*
X139478381Y-102885239D02*
X138478381Y-102885239D01*
X138478381Y-103123334D01*
X138526000Y-103266192D01*
X138621238Y-103361430D01*
X138716476Y-103409049D01*
X138906952Y-103456668D01*
X139049810Y-103456668D01*
X139240286Y-103409049D01*
X139335524Y-103361430D01*
X139430762Y-103266192D01*
X139478381Y-103123334D01*
X139478381Y-102885239D01*
X138811714Y-105075716D02*
X139621238Y-105075716D01*
X139716476Y-105028097D01*
X139764095Y-104980478D01*
X139811714Y-104885239D01*
X139811714Y-104742382D01*
X139764095Y-104647144D01*
X139430762Y-105075716D02*
X139478381Y-104980478D01*
X139478381Y-104790001D01*
X139430762Y-104694763D01*
X139383143Y-104647144D01*
X139287905Y-104599525D01*
X139002190Y-104599525D01*
X138906952Y-104647144D01*
X138859333Y-104694763D01*
X138811714Y-104790001D01*
X138811714Y-104980478D01*
X138859333Y-105075716D01*
X139478381Y-105551906D02*
X138811714Y-105551906D01*
X139002190Y-105551906D02*
X138906952Y-105599525D01*
X138859333Y-105647144D01*
X138811714Y-105742382D01*
X138811714Y-105837621D01*
X139478381Y-106313811D02*
X139430762Y-106218573D01*
X139383143Y-106170954D01*
X139287905Y-106123335D01*
X139002190Y-106123335D01*
X138906952Y-106170954D01*
X138859333Y-106218573D01*
X138811714Y-106313811D01*
X138811714Y-106456669D01*
X138859333Y-106551907D01*
X138906952Y-106599526D01*
X139002190Y-106647145D01*
X139287905Y-106647145D01*
X139383143Y-106599526D01*
X139430762Y-106551907D01*
X139478381Y-106456669D01*
X139478381Y-106313811D01*
X138811714Y-107504288D02*
X139478381Y-107504288D01*
X138811714Y-107075716D02*
X139335524Y-107075716D01*
X139430762Y-107123335D01*
X139478381Y-107218573D01*
X139478381Y-107361431D01*
X139430762Y-107456669D01*
X139383143Y-107504288D01*
X138811714Y-107980478D02*
X139811714Y-107980478D01*
X138859333Y-107980478D02*
X138811714Y-108075716D01*
X138811714Y-108266193D01*
X138859333Y-108361431D01*
X138906952Y-108409050D01*
X139002190Y-108456669D01*
X139287905Y-108456669D01*
X139383143Y-108409050D01*
X139430762Y-108361431D01*
X139478381Y-108266193D01*
X139478381Y-108075716D01*
X139430762Y-107980478D01*
D12*
X132504571Y-98854001D02*
X132504571Y-98139715D01*
X131004571Y-98139715D01*
X131718857Y-99354001D02*
X131718857Y-99854001D01*
X132504571Y-100068287D02*
X132504571Y-99354001D01*
X131004571Y-99354001D01*
X131004571Y-100068287D01*
X132504571Y-100711144D02*
X131004571Y-100711144D01*
X131004571Y-101068287D01*
X131076000Y-101282572D01*
X131218857Y-101425430D01*
X131361714Y-101496858D01*
X131647429Y-101568287D01*
X131861714Y-101568287D01*
X132147429Y-101496858D01*
X132290286Y-101425430D01*
X132433143Y-101282572D01*
X132504571Y-101068287D01*
X132504571Y-100711144D01*
X131076000Y-104139715D02*
X131004571Y-103996858D01*
X131004571Y-103782572D01*
X131076000Y-103568287D01*
X131218857Y-103425429D01*
X131361714Y-103354001D01*
X131647429Y-103282572D01*
X131861714Y-103282572D01*
X132147429Y-103354001D01*
X132290286Y-103425429D01*
X132433143Y-103568287D01*
X132504571Y-103782572D01*
X132504571Y-103925429D01*
X132433143Y-104139715D01*
X132361714Y-104211144D01*
X131861714Y-104211144D01*
X131861714Y-103925429D01*
X131004571Y-104711144D02*
X131004571Y-105639715D01*
X131576000Y-105139715D01*
X131576000Y-105354001D01*
X131647429Y-105496858D01*
X131718857Y-105568287D01*
X131861714Y-105639715D01*
X132218857Y-105639715D01*
X132361714Y-105568287D01*
X132433143Y-105496858D01*
X132504571Y-105354001D01*
X132504571Y-104925429D01*
X132433143Y-104782572D01*
X132361714Y-104711144D01*
X129964571Y-98854001D02*
X129964571Y-98139715D01*
X128464571Y-98139715D01*
X129178857Y-99354001D02*
X129178857Y-99854001D01*
X129964571Y-100068287D02*
X129964571Y-99354001D01*
X128464571Y-99354001D01*
X128464571Y-100068287D01*
X129964571Y-100711144D02*
X128464571Y-100711144D01*
X128464571Y-101068287D01*
X128536000Y-101282572D01*
X128678857Y-101425430D01*
X128821714Y-101496858D01*
X129107429Y-101568287D01*
X129321714Y-101568287D01*
X129607429Y-101496858D01*
X129750286Y-101425430D01*
X129893143Y-101282572D01*
X129964571Y-101068287D01*
X129964571Y-100711144D01*
X128536000Y-104139715D02*
X128464571Y-103996858D01*
X128464571Y-103782572D01*
X128536000Y-103568287D01*
X128678857Y-103425429D01*
X128821714Y-103354001D01*
X129107429Y-103282572D01*
X129321714Y-103282572D01*
X129607429Y-103354001D01*
X129750286Y-103425429D01*
X129893143Y-103568287D01*
X129964571Y-103782572D01*
X129964571Y-103925429D01*
X129893143Y-104139715D01*
X129821714Y-104211144D01*
X129321714Y-104211144D01*
X129321714Y-103925429D01*
X128607429Y-104782572D02*
X128536000Y-104854001D01*
X128464571Y-104996858D01*
X128464571Y-105354001D01*
X128536000Y-105496858D01*
X128607429Y-105568287D01*
X128750286Y-105639715D01*
X128893143Y-105639715D01*
X129107429Y-105568287D01*
X129964571Y-104711144D01*
X129964571Y-105639715D01*
X133616000Y-98933143D02*
X133544571Y-98790286D01*
X133544571Y-98576000D01*
X133616000Y-98361715D01*
X133758857Y-98218857D01*
X133901714Y-98147429D01*
X134187429Y-98076000D01*
X134401714Y-98076000D01*
X134687429Y-98147429D01*
X134830286Y-98218857D01*
X134973143Y-98361715D01*
X135044571Y-98576000D01*
X135044571Y-98718857D01*
X134973143Y-98933143D01*
X134901714Y-99004572D01*
X134401714Y-99004572D01*
X134401714Y-98718857D01*
X135044571Y-99647429D02*
X133544571Y-99647429D01*
X135044571Y-100504572D01*
X133544571Y-100504572D01*
X135044571Y-101218858D02*
X133544571Y-101218858D01*
X133544571Y-101576001D01*
X133616000Y-101790286D01*
X133758857Y-101933144D01*
X133901714Y-102004572D01*
X134187429Y-102076001D01*
X134401714Y-102076001D01*
X134687429Y-102004572D01*
X134830286Y-101933144D01*
X134973143Y-101790286D01*
X135044571Y-101576001D01*
X135044571Y-101218858D01*
X127424571Y-98854001D02*
X127424571Y-98139715D01*
X125924571Y-98139715D01*
X126638857Y-99354001D02*
X126638857Y-99854001D01*
X127424571Y-100068287D02*
X127424571Y-99354001D01*
X125924571Y-99354001D01*
X125924571Y-100068287D01*
X127424571Y-100711144D02*
X125924571Y-100711144D01*
X125924571Y-101068287D01*
X125996000Y-101282572D01*
X126138857Y-101425430D01*
X126281714Y-101496858D01*
X126567429Y-101568287D01*
X126781714Y-101568287D01*
X127067429Y-101496858D01*
X127210286Y-101425430D01*
X127353143Y-101282572D01*
X127424571Y-101068287D01*
X127424571Y-100711144D01*
X125996000Y-104139715D02*
X125924571Y-103996858D01*
X125924571Y-103782572D01*
X125996000Y-103568287D01*
X126138857Y-103425429D01*
X126281714Y-103354001D01*
X126567429Y-103282572D01*
X126781714Y-103282572D01*
X127067429Y-103354001D01*
X127210286Y-103425429D01*
X127353143Y-103568287D01*
X127424571Y-103782572D01*
X127424571Y-103925429D01*
X127353143Y-104139715D01*
X127281714Y-104211144D01*
X126781714Y-104211144D01*
X126781714Y-103925429D01*
X127424571Y-105639715D02*
X127424571Y-104782572D01*
X127424571Y-105211144D02*
X125924571Y-105211144D01*
X126138857Y-105068287D01*
X126281714Y-104925429D01*
X126353143Y-104782572D01*
M02*
