G04 #@! TF.FileFunction,Legend,Top*
%FSLAX46Y46*%
G04 Gerber Fmt 4.6, Leading zero omitted, Abs format (unit mm)*
G04 Created by KiCad (PCBNEW 4.0.7-e2-6376~58~ubuntu16.04.1) date Mon May 21 14:16:18 2018*
%MOMM*%
%LPD*%
G01*
G04 APERTURE LIST*
%ADD10C,0.100000*%
%ADD11C,0.250000*%
%ADD12C,0.125000*%
%ADD13C,0.150000*%
%ADD14C,0.120000*%
G04 APERTURE END LIST*
D10*
D11*
X140255524Y-110434381D02*
X139922190Y-109958190D01*
X139684095Y-110434381D02*
X139684095Y-109434381D01*
X140065048Y-109434381D01*
X140160286Y-109482000D01*
X140207905Y-109529619D01*
X140255524Y-109624857D01*
X140255524Y-109767714D01*
X140207905Y-109862952D01*
X140160286Y-109910571D01*
X140065048Y-109958190D01*
X139684095Y-109958190D01*
X141065048Y-110386762D02*
X140969810Y-110434381D01*
X140779333Y-110434381D01*
X140684095Y-110386762D01*
X140636476Y-110291524D01*
X140636476Y-109910571D01*
X140684095Y-109815333D01*
X140779333Y-109767714D01*
X140969810Y-109767714D01*
X141065048Y-109815333D01*
X141112667Y-109910571D01*
X141112667Y-110005810D01*
X140636476Y-110101048D01*
X141446000Y-109767714D02*
X141684095Y-110434381D01*
X141922191Y-109767714D01*
X143588858Y-110434381D02*
X143017429Y-110434381D01*
X143303143Y-110434381D02*
X143303143Y-109434381D01*
X143207905Y-109577238D01*
X143112667Y-109672476D01*
X143017429Y-109720095D01*
X144017429Y-110339143D02*
X144065048Y-110386762D01*
X144017429Y-110434381D01*
X143969810Y-110386762D01*
X144017429Y-110339143D01*
X144017429Y-110434381D01*
X144684095Y-109434381D02*
X144779334Y-109434381D01*
X144874572Y-109482000D01*
X144922191Y-109529619D01*
X144969810Y-109624857D01*
X145017429Y-109815333D01*
X145017429Y-110053429D01*
X144969810Y-110243905D01*
X144922191Y-110339143D01*
X144874572Y-110386762D01*
X144779334Y-110434381D01*
X144684095Y-110434381D01*
X144588857Y-110386762D01*
X144541238Y-110339143D01*
X144493619Y-110243905D01*
X144446000Y-110053429D01*
X144446000Y-109815333D01*
X144493619Y-109624857D01*
X144541238Y-109529619D01*
X144588857Y-109482000D01*
X144684095Y-109434381D01*
X119110095Y-97226381D02*
X119110095Y-96226381D01*
X119110095Y-96702571D02*
X119681524Y-96702571D01*
X119681524Y-97226381D02*
X119681524Y-96226381D01*
X120538667Y-97178762D02*
X120443429Y-97226381D01*
X120252952Y-97226381D01*
X120157714Y-97178762D01*
X120110095Y-97083524D01*
X120110095Y-96702571D01*
X120157714Y-96607333D01*
X120252952Y-96559714D01*
X120443429Y-96559714D01*
X120538667Y-96607333D01*
X120586286Y-96702571D01*
X120586286Y-96797810D01*
X120110095Y-96893048D01*
X121157714Y-97226381D02*
X121062476Y-97178762D01*
X121014857Y-97083524D01*
X121014857Y-96226381D01*
X121538667Y-97226381D02*
X121538667Y-96559714D01*
X121538667Y-96226381D02*
X121491048Y-96274000D01*
X121538667Y-96321619D01*
X121586286Y-96274000D01*
X121538667Y-96226381D01*
X121538667Y-96321619D01*
X122491048Y-97226381D02*
X122014857Y-97226381D01*
X122014857Y-96226381D01*
X123205334Y-97178762D02*
X123110096Y-97226381D01*
X122919619Y-97226381D01*
X122824381Y-97178762D01*
X122776762Y-97083524D01*
X122776762Y-96702571D01*
X122824381Y-96607333D01*
X122919619Y-96559714D01*
X123110096Y-96559714D01*
X123205334Y-96607333D01*
X123252953Y-96702571D01*
X123252953Y-96797810D01*
X122776762Y-96893048D01*
X124110096Y-97226381D02*
X124110096Y-96226381D01*
X124110096Y-97178762D02*
X124014858Y-97226381D01*
X123824381Y-97226381D01*
X123729143Y-97178762D01*
X123681524Y-97131143D01*
X123633905Y-97035905D01*
X123633905Y-96750190D01*
X123681524Y-96654952D01*
X123729143Y-96607333D01*
X123824381Y-96559714D01*
X124014858Y-96559714D01*
X124110096Y-96607333D01*
X124538667Y-97178762D02*
X124633905Y-97226381D01*
X124824381Y-97226381D01*
X124919620Y-97178762D01*
X124967239Y-97083524D01*
X124967239Y-97035905D01*
X124919620Y-96940667D01*
X124824381Y-96893048D01*
X124681524Y-96893048D01*
X124586286Y-96845429D01*
X124538667Y-96750190D01*
X124538667Y-96702571D01*
X124586286Y-96607333D01*
X124681524Y-96559714D01*
X124824381Y-96559714D01*
X124919620Y-96607333D01*
D12*
X122777334Y-110208190D02*
X122777334Y-109708190D01*
X122967810Y-109708190D01*
X123015429Y-109732000D01*
X123039238Y-109755810D01*
X123063048Y-109803429D01*
X123063048Y-109874857D01*
X123039238Y-109922476D01*
X123015429Y-109946286D01*
X122967810Y-109970095D01*
X122777334Y-109970095D01*
X123229715Y-109708190D02*
X123348762Y-110208190D01*
X123444000Y-109851048D01*
X123539238Y-110208190D01*
X123658286Y-109708190D01*
X124134477Y-110208190D02*
X123967810Y-109970095D01*
X123848763Y-110208190D02*
X123848763Y-109708190D01*
X124039239Y-109708190D01*
X124086858Y-109732000D01*
X124110667Y-109755810D01*
X124134477Y-109803429D01*
X124134477Y-109874857D01*
X124110667Y-109922476D01*
X124086858Y-109946286D01*
X124039239Y-109970095D01*
X123848763Y-109970095D01*
D13*
X140432000Y-98018000D02*
X140432000Y-99568000D01*
X141732000Y-98018000D02*
X140432000Y-98018000D01*
X145923000Y-99441000D02*
X151765000Y-99441000D01*
X151765000Y-99441000D02*
X151765000Y-99695000D01*
X151765000Y-99695000D02*
X145923000Y-99695000D01*
X145923000Y-99695000D02*
X145923000Y-99568000D01*
X145923000Y-99568000D02*
X151765000Y-99568000D01*
X143256000Y-99314000D02*
X142875000Y-99314000D01*
X143256000Y-99822000D02*
X142875000Y-99822000D01*
X143256000Y-101854000D02*
X142875000Y-101854000D01*
X143256000Y-102362000D02*
X142875000Y-102362000D01*
X143256000Y-104394000D02*
X142875000Y-104394000D01*
X143256000Y-104902000D02*
X142875000Y-104902000D01*
X143256000Y-107442000D02*
X142875000Y-107442000D01*
X143256000Y-106934000D02*
X142875000Y-106934000D01*
X143256000Y-98298000D02*
X145796000Y-98298000D01*
X143256000Y-100838000D02*
X145796000Y-100838000D01*
X143256000Y-100838000D02*
X143256000Y-103378000D01*
X143256000Y-103378000D02*
X145796000Y-103378000D01*
X145796000Y-101854000D02*
X151892000Y-101854000D01*
X151892000Y-101854000D02*
X151892000Y-102362000D01*
X151892000Y-102362000D02*
X145796000Y-102362000D01*
X145796000Y-103378000D02*
X145796000Y-100838000D01*
X145796000Y-100838000D02*
X145796000Y-98298000D01*
X151892000Y-99822000D02*
X145796000Y-99822000D01*
X151892000Y-99314000D02*
X151892000Y-99822000D01*
X145796000Y-99314000D02*
X151892000Y-99314000D01*
X143256000Y-100838000D02*
X145796000Y-100838000D01*
X143256000Y-98298000D02*
X143256000Y-100838000D01*
X143256000Y-105918000D02*
X145796000Y-105918000D01*
X143256000Y-105918000D02*
X143256000Y-108458000D01*
X143256000Y-108458000D02*
X145796000Y-108458000D01*
X145796000Y-106934000D02*
X151892000Y-106934000D01*
X151892000Y-106934000D02*
X151892000Y-107442000D01*
X151892000Y-107442000D02*
X145796000Y-107442000D01*
X145796000Y-108458000D02*
X145796000Y-105918000D01*
X145796000Y-105918000D02*
X145796000Y-103378000D01*
X151892000Y-104902000D02*
X145796000Y-104902000D01*
X151892000Y-104394000D02*
X151892000Y-104902000D01*
X145796000Y-104394000D02*
X151892000Y-104394000D01*
X143256000Y-105918000D02*
X145796000Y-105918000D01*
X143256000Y-103378000D02*
X143256000Y-105918000D01*
X143256000Y-103378000D02*
X145796000Y-103378000D01*
X132545000Y-105375000D02*
X132545000Y-105425000D01*
X137270000Y-105300000D02*
X137270000Y-105495000D01*
X137270000Y-110600000D02*
X137270000Y-110380000D01*
X131970000Y-110600000D02*
X131970000Y-110405000D01*
X132545000Y-105325000D02*
X137270000Y-105325000D01*
X131970000Y-110600000D02*
X137270000Y-110600000D01*
X132545000Y-105425000D02*
X131145000Y-105425000D01*
X117230000Y-100505000D02*
X116780000Y-100505000D01*
X117230000Y-100255000D02*
X117230000Y-100505000D01*
X116780000Y-99805000D02*
X117230000Y-100255000D01*
X117030000Y-99555000D02*
X116780000Y-99805000D01*
X117230000Y-99755000D02*
X117030000Y-99555000D01*
X117230000Y-106505000D02*
X116780000Y-106505000D01*
X117230000Y-106755000D02*
X117230000Y-106505000D01*
X116780000Y-107205000D02*
X117230000Y-106755000D01*
X117030000Y-107455000D02*
X116780000Y-107205000D01*
X117230000Y-107255000D02*
X117030000Y-107455000D01*
X118930000Y-99755000D02*
X117230000Y-99755000D01*
X118930000Y-99605000D02*
X118930000Y-99755000D01*
X119830000Y-99605000D02*
X118930000Y-99605000D01*
X119830000Y-99755000D02*
X119830000Y-99605000D01*
X116780000Y-100505000D02*
X116780000Y-106505000D01*
X122280000Y-99755000D02*
X119830000Y-99755000D01*
X122280000Y-107255000D02*
X119830000Y-107255000D01*
X122280000Y-99755000D02*
X122280000Y-107255000D01*
X119830000Y-107255000D02*
X119830000Y-107355000D01*
X119830000Y-107355000D02*
X118930000Y-107355000D01*
X118930000Y-107355000D02*
X118930000Y-107255000D01*
X118930000Y-107255000D02*
X117230000Y-107255000D01*
X137203000Y-103159000D02*
X137203000Y-103014000D01*
X133053000Y-103159000D02*
X133053000Y-103014000D01*
X133053000Y-98009000D02*
X133053000Y-98154000D01*
X137203000Y-98009000D02*
X137203000Y-98154000D01*
X137203000Y-103159000D02*
X133053000Y-103159000D01*
X137203000Y-98009000D02*
X133053000Y-98009000D01*
X137203000Y-103014000D02*
X138603000Y-103014000D01*
X127816000Y-105488000D02*
G75*
G03X127816000Y-105488000I-100000J0D01*
G01*
X128266000Y-105738000D02*
X127766000Y-105738000D01*
X128266000Y-108638000D02*
X128266000Y-105738000D01*
X127766000Y-108638000D02*
X128266000Y-108638000D01*
X127766000Y-105738000D02*
X127766000Y-108638000D01*
D14*
X124114000Y-107538000D02*
X124114000Y-106838000D01*
X125314000Y-106838000D02*
X125314000Y-107538000D01*
X124876000Y-100172000D02*
X124876000Y-99472000D01*
X126076000Y-99472000D02*
X126076000Y-100172000D01*
X135986000Y-104994000D02*
X135286000Y-104994000D01*
X135286000Y-103794000D02*
X135986000Y-103794000D01*
X131730000Y-103794000D02*
X132430000Y-103794000D01*
X132430000Y-104994000D02*
X131730000Y-104994000D01*
D10*
X128191000Y-101472000D02*
X128466000Y-101472000D01*
X128466000Y-101472000D02*
X128841000Y-101197000D01*
X128841000Y-101197000D02*
X128841000Y-101147000D01*
X128841000Y-101147000D02*
X129616000Y-101147000D01*
X128366000Y-98172000D02*
X128841000Y-98172000D01*
X128841000Y-98172000D02*
X128841000Y-98522000D01*
X127191000Y-98397000D02*
X127191000Y-98522000D01*
X127191000Y-98472000D02*
X127191000Y-98172000D01*
X127191000Y-98172000D02*
X127641000Y-98172000D01*
X127566000Y-101472000D02*
X127191000Y-101472000D01*
X127191000Y-101472000D02*
X127191000Y-101172000D01*
D13*
X128246000Y-97620000D02*
X135446000Y-97620000D01*
X128246000Y-95420000D02*
X135446000Y-95420000D01*
X125646000Y-95420000D02*
X126746000Y-95420000D01*
X135446000Y-97620000D02*
X135446000Y-95420000D01*
X128246000Y-95420000D02*
X128246000Y-97620000D01*
X126746000Y-97620000D02*
X125646000Y-97620000D01*
X125646000Y-97620000D02*
X125646000Y-95420000D01*
D14*
X123272000Y-100322000D02*
X123272000Y-99322000D01*
X124632000Y-99322000D02*
X124632000Y-100322000D01*
X127262000Y-109302000D02*
X128262000Y-109302000D01*
X128262000Y-110662000D02*
X127262000Y-110662000D01*
X128516000Y-103042000D02*
X127516000Y-103042000D01*
X127516000Y-101682000D02*
X128516000Y-101682000D01*
X128516000Y-104566000D02*
X127516000Y-104566000D01*
X127516000Y-103206000D02*
X128516000Y-103206000D01*
X125514000Y-102224000D02*
X123614000Y-102224000D01*
X123914000Y-104024000D02*
X125514000Y-104024000D01*
X118596000Y-109432000D02*
X118596000Y-110532000D01*
X118596000Y-110532000D02*
X121196000Y-110532000D01*
X118596000Y-109432000D02*
X121196000Y-109432000D01*
M02*
