G04 #@! TF.FileFunction,Copper,L2,Bot,Signal*
%FSLAX46Y46*%
G04 Gerber Fmt 4.6, Leading zero omitted, Abs format (unit mm)*
G04 Created by KiCad (PCBNEW 4.0.7-e2-6376~58~ubuntu16.04.1) date Mon May 21 14:16:18 2018*
%MOMM*%
%LPD*%
G01*
G04 APERTURE LIST*
%ADD10C,0.100000*%
%ADD11R,2.032000X1.727200*%
%ADD12O,2.032000X1.727200*%
%ADD13O,1.000000X1.000000*%
%ADD14R,1.500000X1.500000*%
%ADD15O,1.500000X1.500000*%
%ADD16C,0.600000*%
%ADD17C,0.250000*%
%ADD18C,0.450000*%
%ADD19C,0.600000*%
%ADD20C,0.254000*%
G04 APERTURE END LIST*
D10*
D11*
X141732000Y-99568000D03*
D12*
X141732000Y-102108000D03*
X141732000Y-104648000D03*
X141732000Y-107188000D03*
D13*
X134366000Y-108458000D03*
D14*
X126746000Y-96520000D03*
D15*
X129286000Y-96520000D03*
X131826000Y-96520000D03*
X134366000Y-96520000D03*
D13*
X135890000Y-108458000D03*
X135890000Y-109728000D03*
X134366000Y-107188000D03*
X135890000Y-107188000D03*
D16*
X135636000Y-102616000D03*
X134620000Y-103632000D03*
X134620000Y-102616000D03*
X139446000Y-97282000D03*
X139446000Y-96520000D03*
X137922000Y-97282000D03*
X136398000Y-97282000D03*
X136398000Y-96520000D03*
X137922000Y-96520000D03*
X124714000Y-99822000D03*
X133096000Y-103632000D03*
X127762000Y-107188000D03*
X119380000Y-100838000D03*
X119380000Y-103378000D03*
X119380000Y-106172000D03*
X120396000Y-108712000D03*
X119380000Y-108712000D03*
X119380000Y-97536000D03*
X121920000Y-98298000D03*
X121920000Y-108458000D03*
X123444000Y-104648000D03*
X124714000Y-104648000D03*
X132588000Y-109728000D03*
X121158000Y-102108000D03*
X124968000Y-101854000D03*
X126746000Y-98806000D03*
X123952000Y-97790000D03*
X129032000Y-105156000D03*
X136398000Y-105410000D03*
X130302000Y-98806000D03*
X134366000Y-107188000D03*
X130048000Y-102616000D03*
X129540000Y-107188000D03*
X130302000Y-103378000D03*
X132842000Y-108458000D03*
X135890000Y-109728000D03*
X140208000Y-108458000D03*
X140208000Y-103886000D03*
X135890000Y-108458000D03*
X139446000Y-107950000D03*
X139446000Y-101600000D03*
X135890000Y-107188000D03*
X139446000Y-100330000D03*
X138684000Y-104140000D03*
X132428000Y-99949000D03*
D17*
X135636000Y-102616000D02*
X134620000Y-102616000D01*
X134620000Y-103632000D02*
X134620000Y-102616000D01*
X137922000Y-96520000D02*
X139446000Y-96520000D01*
X137922000Y-97282000D02*
X137922000Y-96520000D01*
X136398000Y-96520000D02*
X136398000Y-97282000D01*
D18*
X124968000Y-101854000D02*
X121412000Y-101854000D01*
X121412000Y-101854000D02*
X121158000Y-102108000D01*
D19*
X126746000Y-98298000D02*
X126746000Y-98806000D01*
X126238000Y-97790000D02*
X126746000Y-98298000D01*
X123952000Y-97790000D02*
X126238000Y-97790000D01*
X129032000Y-105156000D02*
X129286000Y-105410000D01*
X129286000Y-105410000D02*
X136398000Y-105410000D01*
X141732000Y-99568000D02*
X141478000Y-99568000D01*
X141478000Y-99568000D02*
X140716000Y-98806000D01*
X140716000Y-98806000D02*
X137668000Y-98806000D01*
X137668000Y-98806000D02*
X130302000Y-98806000D01*
D17*
X129540000Y-102616000D02*
X130048000Y-102616000D01*
X127762000Y-104394000D02*
X129540000Y-102616000D01*
X127762000Y-105918000D02*
X127762000Y-104394000D01*
X129032000Y-107188000D02*
X127762000Y-105918000D01*
X129540000Y-107188000D02*
X129032000Y-107188000D01*
X129540000Y-103378000D02*
X130302000Y-103378000D01*
X128270000Y-104648000D02*
X129540000Y-103378000D01*
X128270000Y-105410000D02*
X128270000Y-104648000D01*
X129032000Y-106172000D02*
X128270000Y-105410000D01*
X132080000Y-106172000D02*
X129032000Y-106172000D01*
X132842000Y-106934000D02*
X132080000Y-106172000D01*
X132842000Y-108458000D02*
X132842000Y-106934000D01*
X140208000Y-108458000D02*
X140208000Y-103886000D01*
X139446000Y-107950000D02*
X139446000Y-101600000D01*
X138684000Y-101092000D02*
X139446000Y-100330000D01*
X138684000Y-104140000D02*
X138684000Y-101092000D01*
X129286000Y-96520000D02*
X129286000Y-99060000D01*
X130048000Y-99822000D02*
X129286000Y-99060000D01*
X132301000Y-99822000D02*
X130048000Y-99822000D01*
X132301000Y-99822000D02*
X132428000Y-99949000D01*
D20*
G36*
X125348560Y-96855000D02*
X123952816Y-96855000D01*
X123766833Y-96854838D01*
X123423057Y-96996883D01*
X123159808Y-97259673D01*
X123017162Y-97603201D01*
X123016838Y-97975167D01*
X123158883Y-98318943D01*
X123421673Y-98582192D01*
X123765201Y-98724838D01*
X124137167Y-98725162D01*
X124137559Y-98725000D01*
X125811000Y-98725000D01*
X125811000Y-98805184D01*
X125810838Y-98991167D01*
X125952883Y-99334943D01*
X126215673Y-99598192D01*
X126559201Y-99740838D01*
X126931167Y-99741162D01*
X127274943Y-99599117D01*
X127538192Y-99336327D01*
X127680838Y-98992799D01*
X127681162Y-98620833D01*
X127681000Y-98620441D01*
X127681000Y-98298000D01*
X127609827Y-97940191D01*
X127583610Y-97900955D01*
X127731317Y-97873162D01*
X127947441Y-97734090D01*
X128092431Y-97521890D01*
X128141543Y-97279367D01*
X128306657Y-97526477D01*
X128526000Y-97673037D01*
X128526000Y-99060000D01*
X128583852Y-99350839D01*
X128748599Y-99597401D01*
X129510599Y-100359401D01*
X129757161Y-100524148D01*
X130048000Y-100582000D01*
X131738759Y-100582000D01*
X131897673Y-100741192D01*
X132241201Y-100883838D01*
X132613167Y-100884162D01*
X132956943Y-100742117D01*
X133220192Y-100479327D01*
X133362838Y-100135799D01*
X133363162Y-99763833D01*
X133353728Y-99741000D01*
X138712583Y-99741000D01*
X138653808Y-99799673D01*
X138511162Y-100143201D01*
X138511121Y-100190077D01*
X138146599Y-100554599D01*
X137981852Y-100801161D01*
X137924000Y-101092000D01*
X137924000Y-103577537D01*
X137891808Y-103609673D01*
X137749162Y-103953201D01*
X137748838Y-104325167D01*
X137890883Y-104668943D01*
X138153673Y-104932192D01*
X138497201Y-105074838D01*
X138686000Y-105075002D01*
X138686000Y-107387537D01*
X138653808Y-107419673D01*
X138511162Y-107763201D01*
X138510838Y-108135167D01*
X138652883Y-108478943D01*
X138915673Y-108742192D01*
X139259201Y-108884838D01*
X139372735Y-108884937D01*
X139414883Y-108986943D01*
X139677673Y-109250192D01*
X140021201Y-109392838D01*
X140393167Y-109393162D01*
X140736943Y-109251117D01*
X141000192Y-108988327D01*
X141142838Y-108644799D01*
X141142883Y-108593709D01*
X141370087Y-108673184D01*
X141605000Y-108528924D01*
X141605000Y-107315000D01*
X141859000Y-107315000D01*
X141859000Y-108528924D01*
X142093913Y-108673184D01*
X142646320Y-108479954D01*
X143082732Y-108090036D01*
X143336709Y-107562791D01*
X143339358Y-107547026D01*
X143218217Y-107315000D01*
X141859000Y-107315000D01*
X141605000Y-107315000D01*
X141585000Y-107315000D01*
X141585000Y-107061000D01*
X141605000Y-107061000D01*
X141605000Y-107041000D01*
X141859000Y-107041000D01*
X141859000Y-107061000D01*
X143218217Y-107061000D01*
X143339358Y-106828974D01*
X143336709Y-106813209D01*
X143082732Y-106285964D01*
X142666931Y-105914461D01*
X142976415Y-105707670D01*
X143301271Y-105221489D01*
X143415345Y-104648000D01*
X143301271Y-104074511D01*
X142976415Y-103588330D01*
X142661634Y-103378000D01*
X142976415Y-103167670D01*
X143301271Y-102681489D01*
X143415345Y-102108000D01*
X143301271Y-101534511D01*
X142976415Y-101048330D01*
X142962087Y-101038757D01*
X142983317Y-101034762D01*
X143199441Y-100895690D01*
X143344431Y-100683490D01*
X143395440Y-100431600D01*
X143395440Y-98704400D01*
X143351162Y-98469083D01*
X143212090Y-98252959D01*
X142999890Y-98107969D01*
X142748000Y-98056960D01*
X141245600Y-98056960D01*
X141073809Y-97942173D01*
X140716000Y-97871000D01*
X134493002Y-97871000D01*
X134493002Y-97739657D01*
X134707185Y-97862318D01*
X135073914Y-97710425D01*
X135475583Y-97348902D01*
X135708328Y-96861187D01*
X135586425Y-96647000D01*
X134493000Y-96647000D01*
X134493000Y-96667000D01*
X134239000Y-96667000D01*
X134239000Y-96647000D01*
X134219000Y-96647000D01*
X134219000Y-96393000D01*
X134239000Y-96393000D01*
X134239000Y-96373000D01*
X134493000Y-96373000D01*
X134493000Y-96393000D01*
X135586425Y-96393000D01*
X135708328Y-96178813D01*
X135603907Y-95960000D01*
X144710070Y-95960000D01*
X144988979Y-96015478D01*
X145166145Y-96133856D01*
X145284521Y-96311019D01*
X145340000Y-96589931D01*
X145340000Y-109658073D01*
X145265188Y-110034180D01*
X145091749Y-110293750D01*
X144832182Y-110467186D01*
X144456073Y-110542000D01*
X136697690Y-110542000D01*
X136714802Y-110530566D01*
X136960839Y-110162346D01*
X137047236Y-109728000D01*
X136960839Y-109293654D01*
X136826766Y-109093000D01*
X136960839Y-108892346D01*
X137047236Y-108458000D01*
X136960839Y-108023654D01*
X136826766Y-107823000D01*
X136960839Y-107622346D01*
X137047236Y-107188000D01*
X136960839Y-106753654D01*
X136714802Y-106385434D01*
X136627263Y-106326942D01*
X136926943Y-106203117D01*
X137190192Y-105940327D01*
X137332838Y-105596799D01*
X137333162Y-105224833D01*
X137191117Y-104881057D01*
X136928327Y-104617808D01*
X136584799Y-104475162D01*
X136212833Y-104474838D01*
X136212441Y-104475000D01*
X129673325Y-104475000D01*
X129595631Y-104397171D01*
X129807665Y-104185137D01*
X130115201Y-104312838D01*
X130487167Y-104313162D01*
X130830943Y-104171117D01*
X131094192Y-103908327D01*
X131236838Y-103564799D01*
X131237162Y-103192833D01*
X131095117Y-102849057D01*
X130982896Y-102736640D01*
X130983162Y-102430833D01*
X130841117Y-102087057D01*
X130578327Y-101823808D01*
X130234799Y-101681162D01*
X129862833Y-101680838D01*
X129519057Y-101822883D01*
X129472415Y-101869444D01*
X129249161Y-101913852D01*
X129002599Y-102078599D01*
X127224599Y-103856599D01*
X127059852Y-104103161D01*
X127002000Y-104394000D01*
X127002000Y-105918000D01*
X127059852Y-106208839D01*
X127224599Y-106455401D01*
X128494599Y-107725401D01*
X128741160Y-107890148D01*
X128964043Y-107934482D01*
X129009673Y-107980192D01*
X129353201Y-108122838D01*
X129725167Y-108123162D01*
X130068943Y-107981117D01*
X130332192Y-107718327D01*
X130474838Y-107374799D01*
X130475162Y-107002833D01*
X130445894Y-106932000D01*
X131765198Y-106932000D01*
X132082000Y-107248802D01*
X132082000Y-107895537D01*
X132049808Y-107927673D01*
X131907162Y-108271201D01*
X131906838Y-108643167D01*
X132048883Y-108986943D01*
X132311673Y-109250192D01*
X132655201Y-109392838D01*
X133027167Y-109393162D01*
X133370943Y-109251117D01*
X133483242Y-109139013D01*
X133668396Y-109353323D01*
X134064123Y-109552132D01*
X134239000Y-109427135D01*
X134239000Y-108585000D01*
X134219000Y-108585000D01*
X134219000Y-108331000D01*
X134239000Y-108331000D01*
X134239000Y-108311000D01*
X134283436Y-108311000D01*
X134343764Y-108323000D01*
X134388236Y-108323000D01*
X134448564Y-108311000D01*
X134493000Y-108311000D01*
X134493000Y-108331000D01*
X134513000Y-108331000D01*
X134513000Y-108585000D01*
X134493000Y-108585000D01*
X134493000Y-109427135D01*
X134667877Y-109552132D01*
X134778835Y-109496388D01*
X134732764Y-109728000D01*
X134819161Y-110162346D01*
X135065198Y-110530566D01*
X135082310Y-110542000D01*
X119195931Y-110542000D01*
X118917019Y-110486521D01*
X118739856Y-110368145D01*
X118621478Y-110190979D01*
X118566000Y-109912070D01*
X118566000Y-102293167D01*
X120222838Y-102293167D01*
X120364883Y-102636943D01*
X120627673Y-102900192D01*
X120971201Y-103042838D01*
X121343167Y-103043162D01*
X121686943Y-102901117D01*
X121874387Y-102714000D01*
X124600972Y-102714000D01*
X124781201Y-102788838D01*
X125153167Y-102789162D01*
X125496943Y-102647117D01*
X125760192Y-102384327D01*
X125902838Y-102040799D01*
X125903162Y-101668833D01*
X125761117Y-101325057D01*
X125498327Y-101061808D01*
X125154799Y-100919162D01*
X124782833Y-100918838D01*
X124600927Y-100994000D01*
X121412000Y-100994000D01*
X121082892Y-101059464D01*
X120816608Y-101237389D01*
X120629057Y-101314883D01*
X120365808Y-101577673D01*
X120223162Y-101921201D01*
X120222838Y-102293167D01*
X118566000Y-102293167D01*
X118566000Y-97097931D01*
X118660148Y-96624616D01*
X118888645Y-96282645D01*
X119230616Y-96054148D01*
X119703931Y-95960000D01*
X125348560Y-95960000D01*
X125348560Y-96855000D01*
X125348560Y-96855000D01*
G37*
X125348560Y-96855000D02*
X123952816Y-96855000D01*
X123766833Y-96854838D01*
X123423057Y-96996883D01*
X123159808Y-97259673D01*
X123017162Y-97603201D01*
X123016838Y-97975167D01*
X123158883Y-98318943D01*
X123421673Y-98582192D01*
X123765201Y-98724838D01*
X124137167Y-98725162D01*
X124137559Y-98725000D01*
X125811000Y-98725000D01*
X125811000Y-98805184D01*
X125810838Y-98991167D01*
X125952883Y-99334943D01*
X126215673Y-99598192D01*
X126559201Y-99740838D01*
X126931167Y-99741162D01*
X127274943Y-99599117D01*
X127538192Y-99336327D01*
X127680838Y-98992799D01*
X127681162Y-98620833D01*
X127681000Y-98620441D01*
X127681000Y-98298000D01*
X127609827Y-97940191D01*
X127583610Y-97900955D01*
X127731317Y-97873162D01*
X127947441Y-97734090D01*
X128092431Y-97521890D01*
X128141543Y-97279367D01*
X128306657Y-97526477D01*
X128526000Y-97673037D01*
X128526000Y-99060000D01*
X128583852Y-99350839D01*
X128748599Y-99597401D01*
X129510599Y-100359401D01*
X129757161Y-100524148D01*
X130048000Y-100582000D01*
X131738759Y-100582000D01*
X131897673Y-100741192D01*
X132241201Y-100883838D01*
X132613167Y-100884162D01*
X132956943Y-100742117D01*
X133220192Y-100479327D01*
X133362838Y-100135799D01*
X133363162Y-99763833D01*
X133353728Y-99741000D01*
X138712583Y-99741000D01*
X138653808Y-99799673D01*
X138511162Y-100143201D01*
X138511121Y-100190077D01*
X138146599Y-100554599D01*
X137981852Y-100801161D01*
X137924000Y-101092000D01*
X137924000Y-103577537D01*
X137891808Y-103609673D01*
X137749162Y-103953201D01*
X137748838Y-104325167D01*
X137890883Y-104668943D01*
X138153673Y-104932192D01*
X138497201Y-105074838D01*
X138686000Y-105075002D01*
X138686000Y-107387537D01*
X138653808Y-107419673D01*
X138511162Y-107763201D01*
X138510838Y-108135167D01*
X138652883Y-108478943D01*
X138915673Y-108742192D01*
X139259201Y-108884838D01*
X139372735Y-108884937D01*
X139414883Y-108986943D01*
X139677673Y-109250192D01*
X140021201Y-109392838D01*
X140393167Y-109393162D01*
X140736943Y-109251117D01*
X141000192Y-108988327D01*
X141142838Y-108644799D01*
X141142883Y-108593709D01*
X141370087Y-108673184D01*
X141605000Y-108528924D01*
X141605000Y-107315000D01*
X141859000Y-107315000D01*
X141859000Y-108528924D01*
X142093913Y-108673184D01*
X142646320Y-108479954D01*
X143082732Y-108090036D01*
X143336709Y-107562791D01*
X143339358Y-107547026D01*
X143218217Y-107315000D01*
X141859000Y-107315000D01*
X141605000Y-107315000D01*
X141585000Y-107315000D01*
X141585000Y-107061000D01*
X141605000Y-107061000D01*
X141605000Y-107041000D01*
X141859000Y-107041000D01*
X141859000Y-107061000D01*
X143218217Y-107061000D01*
X143339358Y-106828974D01*
X143336709Y-106813209D01*
X143082732Y-106285964D01*
X142666931Y-105914461D01*
X142976415Y-105707670D01*
X143301271Y-105221489D01*
X143415345Y-104648000D01*
X143301271Y-104074511D01*
X142976415Y-103588330D01*
X142661634Y-103378000D01*
X142976415Y-103167670D01*
X143301271Y-102681489D01*
X143415345Y-102108000D01*
X143301271Y-101534511D01*
X142976415Y-101048330D01*
X142962087Y-101038757D01*
X142983317Y-101034762D01*
X143199441Y-100895690D01*
X143344431Y-100683490D01*
X143395440Y-100431600D01*
X143395440Y-98704400D01*
X143351162Y-98469083D01*
X143212090Y-98252959D01*
X142999890Y-98107969D01*
X142748000Y-98056960D01*
X141245600Y-98056960D01*
X141073809Y-97942173D01*
X140716000Y-97871000D01*
X134493002Y-97871000D01*
X134493002Y-97739657D01*
X134707185Y-97862318D01*
X135073914Y-97710425D01*
X135475583Y-97348902D01*
X135708328Y-96861187D01*
X135586425Y-96647000D01*
X134493000Y-96647000D01*
X134493000Y-96667000D01*
X134239000Y-96667000D01*
X134239000Y-96647000D01*
X134219000Y-96647000D01*
X134219000Y-96393000D01*
X134239000Y-96393000D01*
X134239000Y-96373000D01*
X134493000Y-96373000D01*
X134493000Y-96393000D01*
X135586425Y-96393000D01*
X135708328Y-96178813D01*
X135603907Y-95960000D01*
X144710070Y-95960000D01*
X144988979Y-96015478D01*
X145166145Y-96133856D01*
X145284521Y-96311019D01*
X145340000Y-96589931D01*
X145340000Y-109658073D01*
X145265188Y-110034180D01*
X145091749Y-110293750D01*
X144832182Y-110467186D01*
X144456073Y-110542000D01*
X136697690Y-110542000D01*
X136714802Y-110530566D01*
X136960839Y-110162346D01*
X137047236Y-109728000D01*
X136960839Y-109293654D01*
X136826766Y-109093000D01*
X136960839Y-108892346D01*
X137047236Y-108458000D01*
X136960839Y-108023654D01*
X136826766Y-107823000D01*
X136960839Y-107622346D01*
X137047236Y-107188000D01*
X136960839Y-106753654D01*
X136714802Y-106385434D01*
X136627263Y-106326942D01*
X136926943Y-106203117D01*
X137190192Y-105940327D01*
X137332838Y-105596799D01*
X137333162Y-105224833D01*
X137191117Y-104881057D01*
X136928327Y-104617808D01*
X136584799Y-104475162D01*
X136212833Y-104474838D01*
X136212441Y-104475000D01*
X129673325Y-104475000D01*
X129595631Y-104397171D01*
X129807665Y-104185137D01*
X130115201Y-104312838D01*
X130487167Y-104313162D01*
X130830943Y-104171117D01*
X131094192Y-103908327D01*
X131236838Y-103564799D01*
X131237162Y-103192833D01*
X131095117Y-102849057D01*
X130982896Y-102736640D01*
X130983162Y-102430833D01*
X130841117Y-102087057D01*
X130578327Y-101823808D01*
X130234799Y-101681162D01*
X129862833Y-101680838D01*
X129519057Y-101822883D01*
X129472415Y-101869444D01*
X129249161Y-101913852D01*
X129002599Y-102078599D01*
X127224599Y-103856599D01*
X127059852Y-104103161D01*
X127002000Y-104394000D01*
X127002000Y-105918000D01*
X127059852Y-106208839D01*
X127224599Y-106455401D01*
X128494599Y-107725401D01*
X128741160Y-107890148D01*
X128964043Y-107934482D01*
X129009673Y-107980192D01*
X129353201Y-108122838D01*
X129725167Y-108123162D01*
X130068943Y-107981117D01*
X130332192Y-107718327D01*
X130474838Y-107374799D01*
X130475162Y-107002833D01*
X130445894Y-106932000D01*
X131765198Y-106932000D01*
X132082000Y-107248802D01*
X132082000Y-107895537D01*
X132049808Y-107927673D01*
X131907162Y-108271201D01*
X131906838Y-108643167D01*
X132048883Y-108986943D01*
X132311673Y-109250192D01*
X132655201Y-109392838D01*
X133027167Y-109393162D01*
X133370943Y-109251117D01*
X133483242Y-109139013D01*
X133668396Y-109353323D01*
X134064123Y-109552132D01*
X134239000Y-109427135D01*
X134239000Y-108585000D01*
X134219000Y-108585000D01*
X134219000Y-108331000D01*
X134239000Y-108331000D01*
X134239000Y-108311000D01*
X134283436Y-108311000D01*
X134343764Y-108323000D01*
X134388236Y-108323000D01*
X134448564Y-108311000D01*
X134493000Y-108311000D01*
X134493000Y-108331000D01*
X134513000Y-108331000D01*
X134513000Y-108585000D01*
X134493000Y-108585000D01*
X134493000Y-109427135D01*
X134667877Y-109552132D01*
X134778835Y-109496388D01*
X134732764Y-109728000D01*
X134819161Y-110162346D01*
X135065198Y-110530566D01*
X135082310Y-110542000D01*
X119195931Y-110542000D01*
X118917019Y-110486521D01*
X118739856Y-110368145D01*
X118621478Y-110190979D01*
X118566000Y-109912070D01*
X118566000Y-102293167D01*
X120222838Y-102293167D01*
X120364883Y-102636943D01*
X120627673Y-102900192D01*
X120971201Y-103042838D01*
X121343167Y-103043162D01*
X121686943Y-102901117D01*
X121874387Y-102714000D01*
X124600972Y-102714000D01*
X124781201Y-102788838D01*
X125153167Y-102789162D01*
X125496943Y-102647117D01*
X125760192Y-102384327D01*
X125902838Y-102040799D01*
X125903162Y-101668833D01*
X125761117Y-101325057D01*
X125498327Y-101061808D01*
X125154799Y-100919162D01*
X124782833Y-100918838D01*
X124600927Y-100994000D01*
X121412000Y-100994000D01*
X121082892Y-101059464D01*
X120816608Y-101237389D01*
X120629057Y-101314883D01*
X120365808Y-101577673D01*
X120223162Y-101921201D01*
X120222838Y-102293167D01*
X118566000Y-102293167D01*
X118566000Y-97097931D01*
X118660148Y-96624616D01*
X118888645Y-96282645D01*
X119230616Y-96054148D01*
X119703931Y-95960000D01*
X125348560Y-95960000D01*
X125348560Y-96855000D01*
M02*
