G04 #@! TF.FileFunction,Copper,L1,Top,Signal*
%FSLAX46Y46*%
G04 Gerber Fmt 4.6, Leading zero omitted, Abs format (unit mm)*
G04 Created by KiCad (PCBNEW 4.0.7-e2-6376~58~ubuntu16.04.1) date Mon May 21 14:16:18 2018*
%MOMM*%
%LPD*%
G01*
G04 APERTURE LIST*
%ADD10C,0.100000*%
%ADD11R,2.032000X1.727200*%
%ADD12O,2.032000X1.727200*%
%ADD13R,1.550000X0.600000*%
%ADD14R,1.900000X1.900000*%
%ADD15R,1.900000X1.800000*%
%ADD16R,1.600000X2.100000*%
%ADD17R,1.350000X0.400000*%
%ADD18R,1.175000X1.175000*%
%ADD19R,1.060000X0.650000*%
%ADD20R,0.750000X1.200000*%
%ADD21R,1.200000X0.750000*%
%ADD22R,1.300000X0.600000*%
%ADD23R,1.500000X1.500000*%
%ADD24O,1.500000X1.500000*%
%ADD25R,0.900000X1.200000*%
%ADD26R,1.200000X0.900000*%
%ADD27R,0.500000X0.375000*%
%ADD28R,0.650000X0.300000*%
%ADD29C,0.600000*%
%ADD30C,0.250000*%
%ADD31C,0.450000*%
%ADD32C,0.600000*%
%ADD33C,0.400000*%
%ADD34C,0.500000*%
%ADD35C,0.254000*%
G04 APERTURE END LIST*
D10*
D11*
X141732000Y-99568000D03*
D12*
X141732000Y-102108000D03*
X141732000Y-104648000D03*
X141732000Y-107188000D03*
D13*
X131220000Y-106045000D03*
X131220000Y-107315000D03*
X131220000Y-108585000D03*
X131220000Y-109855000D03*
X138020000Y-109855000D03*
X138020000Y-108585000D03*
X138020000Y-107315000D03*
X138020000Y-106045000D03*
D14*
X119380000Y-102305000D03*
X119380000Y-104705000D03*
D15*
X119380000Y-107305000D03*
X119380000Y-99705000D03*
D16*
X121930000Y-106605000D03*
X121930000Y-100405000D03*
D17*
X122055000Y-102205000D03*
X122055000Y-102855000D03*
X122055000Y-103505000D03*
X122055000Y-104155000D03*
X122055000Y-104805000D03*
D13*
X137828000Y-102489000D03*
X137828000Y-101219000D03*
X137828000Y-99949000D03*
X137828000Y-98679000D03*
X132428000Y-98679000D03*
X132428000Y-99949000D03*
X132428000Y-101219000D03*
X132428000Y-102489000D03*
D18*
X134540500Y-99996500D03*
X134540500Y-101171500D03*
X135715500Y-99996500D03*
X135715500Y-101171500D03*
D19*
X126916000Y-106238000D03*
X126916000Y-107188000D03*
X126916000Y-108138000D03*
X129116000Y-108138000D03*
X129116000Y-106238000D03*
D20*
X124714000Y-108138000D03*
X124714000Y-106238000D03*
X125476000Y-100772000D03*
X125476000Y-98872000D03*
D21*
X136586000Y-104394000D03*
X134686000Y-104394000D03*
X131130000Y-104394000D03*
X133030000Y-104394000D03*
D22*
X126966000Y-99822000D03*
X129066000Y-98872000D03*
X129066000Y-100772000D03*
D23*
X126746000Y-96520000D03*
D24*
X129286000Y-96520000D03*
X131826000Y-96520000D03*
X134366000Y-96520000D03*
D25*
X123952000Y-98722000D03*
X123952000Y-100922000D03*
D26*
X128862000Y-109982000D03*
X126662000Y-109982000D03*
X126916000Y-102362000D03*
X129116000Y-102362000D03*
X126916000Y-103886000D03*
X129116000Y-103886000D03*
D27*
X123864000Y-102586500D03*
X123864000Y-103661500D03*
D28*
X125639000Y-103124000D03*
X123789000Y-103124000D03*
D27*
X125564000Y-103661500D03*
X125564000Y-102586500D03*
D26*
X119296000Y-109982000D03*
X121496000Y-109982000D03*
D29*
X135636000Y-102616000D03*
X134620000Y-103632000D03*
X134620000Y-102616000D03*
X139446000Y-97282000D03*
X139446000Y-96520000D03*
X137922000Y-97282000D03*
X136398000Y-97282000D03*
X136398000Y-96520000D03*
X137922000Y-96520000D03*
X124714000Y-99822000D03*
X133096000Y-103632000D03*
X127762000Y-107188000D03*
X119380000Y-100838000D03*
X119380000Y-103378000D03*
X119380000Y-106172000D03*
X120396000Y-108712000D03*
X119380000Y-108712000D03*
X119380000Y-97536000D03*
X121920000Y-98298000D03*
X121920000Y-108458000D03*
X123444000Y-104648000D03*
X124714000Y-104648000D03*
X132588000Y-109728000D03*
X121158000Y-102108000D03*
X124968000Y-101854000D03*
X126746000Y-98806000D03*
X123952000Y-97790000D03*
X129032000Y-105156000D03*
X136398000Y-105410000D03*
X130302000Y-98806000D03*
X134366000Y-107188000D03*
X130048000Y-102616000D03*
X129540000Y-107188000D03*
X130302000Y-103378000D03*
X132842000Y-108458000D03*
X135890000Y-109728000D03*
X140208000Y-108458000D03*
X140208000Y-103886000D03*
X135890000Y-108458000D03*
X139446000Y-107950000D03*
X139446000Y-101600000D03*
X135890000Y-107188000D03*
X139446000Y-100330000D03*
X138684000Y-104140000D03*
X132428000Y-99949000D03*
D30*
X135636000Y-102616000D02*
X134620000Y-102616000D01*
X135636000Y-102616000D02*
X134620000Y-102616000D01*
X134620000Y-102616000D02*
X135636000Y-102616000D01*
X134620000Y-102616000D02*
X135382000Y-102616000D01*
X135382000Y-102616000D02*
X135636000Y-102616000D01*
X139446000Y-96520000D02*
X139446000Y-97282000D01*
X137828000Y-97376000D02*
X137922000Y-97282000D01*
X137828000Y-98679000D02*
X137828000Y-97376000D01*
X136398000Y-98806000D02*
X136398000Y-97282000D01*
X136398000Y-99314000D02*
X136398000Y-98806000D01*
X136398000Y-99314000D02*
X135715500Y-99996500D01*
X137922000Y-96520000D02*
X136398000Y-96520000D01*
X134620000Y-101251000D02*
X134620000Y-102616000D01*
X134686000Y-103698000D02*
X134620000Y-103632000D01*
X134686000Y-103698000D02*
X134686000Y-104394000D01*
X134620000Y-101251000D02*
X134540500Y-101171500D01*
X134540500Y-101171500D02*
X135715500Y-99996500D01*
X135715500Y-99996500D02*
X135715500Y-101171500D01*
X135715500Y-101171500D02*
X135715500Y-99996500D01*
X125476000Y-98872000D02*
X125476000Y-99060000D01*
X125476000Y-99060000D02*
X124714000Y-99822000D01*
X133030000Y-104394000D02*
X133030000Y-103698000D01*
X133030000Y-103698000D02*
X133096000Y-103632000D01*
X121930000Y-100405000D02*
X122607000Y-100405000D01*
X125410000Y-98872000D02*
X125476000Y-98872000D01*
X126916000Y-107188000D02*
X127762000Y-107188000D01*
X119296000Y-109982000D02*
X119888000Y-109982000D01*
X119888000Y-109982000D02*
X120396000Y-109474000D01*
X120396000Y-109474000D02*
X120396000Y-108712000D01*
X119380000Y-107305000D02*
X119380000Y-108712000D01*
X119380000Y-99705000D02*
X119380000Y-97536000D01*
X121930000Y-100405000D02*
X121930000Y-98308000D01*
X121930000Y-98308000D02*
X121920000Y-98298000D01*
X121930000Y-106605000D02*
X121930000Y-108448000D01*
X121930000Y-108448000D02*
X121920000Y-108458000D01*
X122055000Y-104805000D02*
X123287000Y-104805000D01*
X123287000Y-104805000D02*
X123444000Y-104648000D01*
X123789000Y-103124000D02*
X124331602Y-103124000D01*
X124331602Y-103124000D02*
X124714000Y-103506398D01*
X124714000Y-103506398D02*
X124714000Y-104648000D01*
X121930000Y-106605000D02*
X123011000Y-106605000D01*
X123011000Y-106605000D02*
X123378000Y-106238000D01*
X123378000Y-106238000D02*
X124714000Y-106238000D01*
X119380000Y-107305000D02*
X121230000Y-107305000D01*
X121230000Y-107305000D02*
X121930000Y-106605000D01*
X119296000Y-107389000D02*
X119380000Y-107305000D01*
X119380000Y-107305000D02*
X119380000Y-106172000D01*
X119380000Y-106172000D02*
X119380000Y-104705000D01*
X119380000Y-104705000D02*
X119380000Y-103378000D01*
X119380000Y-103378000D02*
X119380000Y-102305000D01*
X119380000Y-102305000D02*
X119380000Y-100838000D01*
X119380000Y-100838000D02*
X119380000Y-99705000D01*
X119380000Y-99705000D02*
X119497000Y-99822000D01*
X119497000Y-99822000D02*
X121347000Y-99822000D01*
X121347000Y-99822000D02*
X121930000Y-100405000D01*
X131220000Y-109855000D02*
X132461000Y-109855000D01*
X132461000Y-109855000D02*
X132588000Y-109728000D01*
X126916000Y-106238000D02*
X126916000Y-105494000D01*
X126916000Y-105494000D02*
X127508000Y-104902000D01*
X127508000Y-104902000D02*
X128016000Y-104394000D01*
X128016000Y-104394000D02*
X128016000Y-101600000D01*
X128016000Y-101600000D02*
X128016000Y-101092000D01*
X128016000Y-101092000D02*
X128336000Y-100772000D01*
X128336000Y-100772000D02*
X129066000Y-100772000D01*
X127000000Y-106154000D02*
X126916000Y-106238000D01*
X125730000Y-107442000D02*
X125730000Y-107696000D01*
X125730000Y-107696000D02*
X125288000Y-108138000D01*
X125288000Y-108138000D02*
X124714000Y-108138000D01*
X125730000Y-107696000D02*
X125730000Y-108138000D01*
X125730000Y-108138000D02*
X125730000Y-107696000D01*
X125730000Y-107696000D02*
X126172000Y-108138000D01*
X126172000Y-108138000D02*
X126916000Y-108138000D01*
X126916000Y-106238000D02*
X126172000Y-106238000D01*
X125542000Y-108138000D02*
X124714000Y-108138000D01*
X125730000Y-107950000D02*
X125542000Y-108138000D01*
X125730000Y-106680000D02*
X125730000Y-107442000D01*
X125730000Y-107696000D02*
X125730000Y-107950000D01*
X126172000Y-106238000D02*
X125730000Y-106680000D01*
X124714000Y-108138000D02*
X126916000Y-108138000D01*
X125639000Y-103124000D02*
X124968000Y-103124000D01*
X124714000Y-102108000D02*
X124968000Y-101854000D01*
X124714000Y-102870000D02*
X124714000Y-102108000D01*
X124968000Y-103124000D02*
X124714000Y-102870000D01*
D31*
X121255000Y-102205000D02*
X122055000Y-102205000D01*
X121158000Y-102108000D02*
X121255000Y-102205000D01*
D32*
X125476000Y-100772000D02*
X125476000Y-101346000D01*
X125476000Y-101346000D02*
X124968000Y-101854000D01*
X123952000Y-98722000D02*
X123952000Y-97790000D01*
X126966000Y-99026000D02*
X126966000Y-99822000D01*
X126746000Y-98806000D02*
X126966000Y-99026000D01*
X125476000Y-100772000D02*
X126812000Y-100772000D01*
X126966000Y-100618000D02*
X126966000Y-99822000D01*
X126812000Y-100772000D02*
X126966000Y-100618000D01*
D33*
X128862000Y-109982000D02*
X128862000Y-110574000D01*
X135128000Y-106680000D02*
X136398000Y-105410000D01*
X135128000Y-109728000D02*
X135128000Y-106680000D01*
X134112000Y-110744000D02*
X135128000Y-109728000D01*
X129032000Y-110744000D02*
X134112000Y-110744000D01*
X128862000Y-110574000D02*
X129032000Y-110744000D01*
X128862000Y-109982000D02*
X129032000Y-109982000D01*
D34*
X128862000Y-109982000D02*
X128862000Y-109812000D01*
D32*
X129116000Y-106238000D02*
X129116000Y-105240000D01*
X129116000Y-105240000D02*
X129032000Y-105156000D01*
X136586000Y-105222000D02*
X136586000Y-104394000D01*
X136398000Y-105410000D02*
X136586000Y-105222000D01*
X136586000Y-104394000D02*
X137414000Y-104394000D01*
X138020000Y-105000000D02*
X138020000Y-106045000D01*
X137414000Y-104394000D02*
X138020000Y-105000000D01*
X131130000Y-104394000D02*
X131130000Y-102428000D01*
X131130000Y-102428000D02*
X130302000Y-101600000D01*
X132428000Y-102489000D02*
X131445000Y-102489000D01*
X131445000Y-102489000D02*
X130302000Y-101600000D01*
X130302000Y-101600000D02*
X130302000Y-98806000D01*
X130302000Y-98806000D02*
X130236000Y-98872000D01*
X130236000Y-98872000D02*
X129066000Y-98872000D01*
D30*
X131220000Y-106045000D02*
X133223000Y-106045000D01*
X133223000Y-106045000D02*
X134366000Y-107188000D01*
X131220000Y-107315000D02*
X129667000Y-107315000D01*
X129794000Y-102362000D02*
X129116000Y-102362000D01*
X130048000Y-102616000D02*
X129794000Y-102362000D01*
X129667000Y-107315000D02*
X129540000Y-107188000D01*
X131220000Y-108585000D02*
X132715000Y-108585000D01*
X129794000Y-103886000D02*
X129116000Y-103886000D01*
X130302000Y-103378000D02*
X129794000Y-103886000D01*
X132715000Y-108585000D02*
X132842000Y-108458000D01*
X138020000Y-109855000D02*
X139319000Y-109855000D01*
X140208000Y-108966000D02*
X140208000Y-108458000D01*
X139319000Y-109855000D02*
X140208000Y-108966000D01*
X138020000Y-109855000D02*
X136017000Y-109855000D01*
X136017000Y-109855000D02*
X135890000Y-109728000D01*
X138811000Y-102489000D02*
X137828000Y-102489000D01*
X140208000Y-103886000D02*
X138811000Y-102489000D01*
X138020000Y-108585000D02*
X139319000Y-108585000D01*
X139446000Y-108458000D02*
X139446000Y-107950000D01*
X139319000Y-108585000D02*
X139446000Y-108458000D01*
X138020000Y-108585000D02*
X136017000Y-108585000D01*
X136017000Y-108585000D02*
X135890000Y-108458000D01*
X139065000Y-101219000D02*
X137828000Y-101219000D01*
X139446000Y-101600000D02*
X139065000Y-101219000D01*
X138020000Y-107315000D02*
X136017000Y-107315000D01*
X136017000Y-107315000D02*
X135890000Y-107188000D01*
X138020000Y-107315000D02*
X139065000Y-107315000D01*
X139065000Y-99949000D02*
X137828000Y-99949000D01*
X139446000Y-100330000D02*
X139065000Y-99949000D01*
X139446000Y-104902000D02*
X138684000Y-104140000D01*
X139446000Y-106934000D02*
X139446000Y-104902000D01*
X139065000Y-107315000D02*
X139446000Y-106934000D01*
X132428000Y-101219000D02*
X131445000Y-101219000D01*
X126746000Y-97536000D02*
X126746000Y-96520000D01*
X127000000Y-97790000D02*
X126746000Y-97536000D01*
X130302000Y-97790000D02*
X127000000Y-97790000D01*
X131064000Y-98552000D02*
X130302000Y-97790000D01*
X131064000Y-100838000D02*
X131064000Y-98552000D01*
X131445000Y-101219000D02*
X131064000Y-100838000D01*
X131826000Y-96520000D02*
X131826000Y-96774000D01*
X131826000Y-96774000D02*
X132428000Y-97376000D01*
X132428000Y-97376000D02*
X132428000Y-98679000D01*
X123952000Y-100922000D02*
X123952000Y-102498500D01*
X123952000Y-102498500D02*
X123864000Y-102586500D01*
X122055000Y-102855000D02*
X122951000Y-102855000D01*
X123219500Y-102586500D02*
X123864000Y-102586500D01*
X122951000Y-102855000D02*
X123219500Y-102586500D01*
X122055000Y-103505000D02*
X123063000Y-103505000D01*
X123219500Y-103661500D02*
X123864000Y-103661500D01*
X123063000Y-103505000D02*
X123219500Y-103661500D01*
X125564000Y-102586500D02*
X126691500Y-102586500D01*
X126691500Y-102586500D02*
X126916000Y-102362000D01*
X125564000Y-103661500D02*
X126691500Y-103661500D01*
X126691500Y-103661500D02*
X126916000Y-103886000D01*
X121496000Y-109982000D02*
X126662000Y-109982000D01*
D35*
G36*
X140843000Y-97917000D02*
X136652000Y-97917000D01*
X136602590Y-97927006D01*
X136560965Y-97955447D01*
X136533685Y-97997841D01*
X136525000Y-98044000D01*
X136525000Y-99296958D01*
X136456569Y-99397110D01*
X136405560Y-99649000D01*
X136405560Y-100249000D01*
X136449838Y-100484317D01*
X136513678Y-100583528D01*
X136456569Y-100667110D01*
X136405560Y-100919000D01*
X136405560Y-101519000D01*
X136449838Y-101754317D01*
X136513678Y-101853528D01*
X136456569Y-101937110D01*
X136405560Y-102189000D01*
X136405560Y-102789000D01*
X136449838Y-103024317D01*
X136525000Y-103141122D01*
X136525000Y-103371560D01*
X135986000Y-103371560D01*
X135750683Y-103415838D01*
X135601155Y-103512056D01*
X135586590Y-103515006D01*
X135544965Y-103543447D01*
X135539730Y-103551583D01*
X135534559Y-103554910D01*
X135389569Y-103767110D01*
X135338560Y-104019000D01*
X135338560Y-104769000D01*
X135382838Y-105004317D01*
X135476798Y-105150334D01*
X135344132Y-105283000D01*
X132443636Y-105283000D01*
X132246890Y-105148569D01*
X132240127Y-105147200D01*
X132326431Y-105020890D01*
X132377440Y-104769000D01*
X132377440Y-104019000D01*
X132333162Y-103783683D01*
X132207000Y-103587622D01*
X132207000Y-103436440D01*
X133203000Y-103436440D01*
X133438317Y-103392162D01*
X133654441Y-103253090D01*
X133670846Y-103229081D01*
X133695035Y-103212553D01*
X133722315Y-103170159D01*
X133726575Y-103147518D01*
X133799431Y-103040890D01*
X133850440Y-102789000D01*
X133850440Y-102189000D01*
X133806162Y-101953683D01*
X133742322Y-101854472D01*
X133799431Y-101770890D01*
X133850440Y-101519000D01*
X133850440Y-100919000D01*
X133806162Y-100683683D01*
X133742322Y-100584472D01*
X133799431Y-100500890D01*
X133850440Y-100249000D01*
X133850440Y-99649000D01*
X133806162Y-99413683D01*
X133742322Y-99314472D01*
X133799431Y-99230890D01*
X133850440Y-98979000D01*
X133850440Y-98379000D01*
X133806162Y-98143683D01*
X133731000Y-98026878D01*
X133731000Y-95960000D01*
X140843000Y-95960000D01*
X140843000Y-97917000D01*
X140843000Y-97917000D01*
G37*
X140843000Y-97917000D02*
X136652000Y-97917000D01*
X136602590Y-97927006D01*
X136560965Y-97955447D01*
X136533685Y-97997841D01*
X136525000Y-98044000D01*
X136525000Y-99296958D01*
X136456569Y-99397110D01*
X136405560Y-99649000D01*
X136405560Y-100249000D01*
X136449838Y-100484317D01*
X136513678Y-100583528D01*
X136456569Y-100667110D01*
X136405560Y-100919000D01*
X136405560Y-101519000D01*
X136449838Y-101754317D01*
X136513678Y-101853528D01*
X136456569Y-101937110D01*
X136405560Y-102189000D01*
X136405560Y-102789000D01*
X136449838Y-103024317D01*
X136525000Y-103141122D01*
X136525000Y-103371560D01*
X135986000Y-103371560D01*
X135750683Y-103415838D01*
X135601155Y-103512056D01*
X135586590Y-103515006D01*
X135544965Y-103543447D01*
X135539730Y-103551583D01*
X135534559Y-103554910D01*
X135389569Y-103767110D01*
X135338560Y-104019000D01*
X135338560Y-104769000D01*
X135382838Y-105004317D01*
X135476798Y-105150334D01*
X135344132Y-105283000D01*
X132443636Y-105283000D01*
X132246890Y-105148569D01*
X132240127Y-105147200D01*
X132326431Y-105020890D01*
X132377440Y-104769000D01*
X132377440Y-104019000D01*
X132333162Y-103783683D01*
X132207000Y-103587622D01*
X132207000Y-103436440D01*
X133203000Y-103436440D01*
X133438317Y-103392162D01*
X133654441Y-103253090D01*
X133670846Y-103229081D01*
X133695035Y-103212553D01*
X133722315Y-103170159D01*
X133726575Y-103147518D01*
X133799431Y-103040890D01*
X133850440Y-102789000D01*
X133850440Y-102189000D01*
X133806162Y-101953683D01*
X133742322Y-101854472D01*
X133799431Y-101770890D01*
X133850440Y-101519000D01*
X133850440Y-100919000D01*
X133806162Y-100683683D01*
X133742322Y-100584472D01*
X133799431Y-100500890D01*
X133850440Y-100249000D01*
X133850440Y-99649000D01*
X133806162Y-99413683D01*
X133742322Y-99314472D01*
X133799431Y-99230890D01*
X133850440Y-98979000D01*
X133850440Y-98379000D01*
X133806162Y-98143683D01*
X133731000Y-98026878D01*
X133731000Y-95960000D01*
X140843000Y-95960000D01*
X140843000Y-97917000D01*
M02*
