G04 #@! TF.FileFunction,Soldermask,Top*
%FSLAX46Y46*%
G04 Gerber Fmt 4.6, Leading zero omitted, Abs format (unit mm)*
G04 Created by KiCad (PCBNEW 4.0.7-e2-6376~58~ubuntu16.04.1) date Mon May 21 14:16:18 2018*
%MOMM*%
%LPD*%
G01*
G04 APERTURE LIST*
%ADD10C,0.100000*%
%ADD11R,2.432000X2.127200*%
%ADD12O,2.432000X2.127200*%
%ADD13R,1.950000X1.000000*%
%ADD14R,2.300000X2.300000*%
%ADD15R,2.300000X2.200000*%
%ADD16R,2.000000X2.500000*%
%ADD17R,1.750000X0.800000*%
%ADD18R,1.575000X1.575000*%
%ADD19R,1.460000X1.050000*%
%ADD20R,1.150000X1.600000*%
%ADD21R,1.600000X1.150000*%
%ADD22R,1.440000X0.740000*%
%ADD23R,1.900000X1.900000*%
%ADD24O,1.900000X1.900000*%
%ADD25R,1.300000X1.600000*%
%ADD26R,1.600000X1.300000*%
%ADD27R,0.900000X0.775000*%
%ADD28R,1.050000X0.700000*%
G04 APERTURE END LIST*
D10*
D11*
X141732000Y-99568000D03*
D12*
X141732000Y-102108000D03*
X141732000Y-104648000D03*
X141732000Y-107188000D03*
D13*
X131220000Y-106045000D03*
X131220000Y-107315000D03*
X131220000Y-108585000D03*
X131220000Y-109855000D03*
X138020000Y-109855000D03*
X138020000Y-108585000D03*
X138020000Y-107315000D03*
X138020000Y-106045000D03*
D14*
X119380000Y-102305000D03*
X119380000Y-104705000D03*
D15*
X119380000Y-107305000D03*
X119380000Y-99705000D03*
D16*
X121930000Y-106605000D03*
X121930000Y-100405000D03*
D17*
X122055000Y-102205000D03*
X122055000Y-102855000D03*
X122055000Y-103505000D03*
X122055000Y-104155000D03*
X122055000Y-104805000D03*
D13*
X137828000Y-102489000D03*
X137828000Y-101219000D03*
X137828000Y-99949000D03*
X137828000Y-98679000D03*
X132428000Y-98679000D03*
X132428000Y-99949000D03*
X132428000Y-101219000D03*
X132428000Y-102489000D03*
D18*
X134540500Y-99996500D03*
X134540500Y-101171500D03*
X135715500Y-99996500D03*
X135715500Y-101171500D03*
D19*
X126916000Y-106238000D03*
X126916000Y-107188000D03*
X126916000Y-108138000D03*
X129116000Y-108138000D03*
X129116000Y-106238000D03*
D20*
X124714000Y-108138000D03*
X124714000Y-106238000D03*
X125476000Y-100772000D03*
X125476000Y-98872000D03*
D21*
X136586000Y-104394000D03*
X134686000Y-104394000D03*
X131130000Y-104394000D03*
X133030000Y-104394000D03*
D22*
X126966000Y-99822000D03*
X129066000Y-98872000D03*
X129066000Y-100772000D03*
D23*
X126746000Y-96520000D03*
D24*
X129286000Y-96520000D03*
X131826000Y-96520000D03*
X134366000Y-96520000D03*
D25*
X123952000Y-98722000D03*
X123952000Y-100922000D03*
D26*
X128862000Y-109982000D03*
X126662000Y-109982000D03*
X126916000Y-102362000D03*
X129116000Y-102362000D03*
X126916000Y-103886000D03*
X129116000Y-103886000D03*
D27*
X123864000Y-102586500D03*
X123864000Y-103661500D03*
D28*
X125639000Y-103124000D03*
X123789000Y-103124000D03*
D27*
X125564000Y-103661500D03*
X125564000Y-102586500D03*
D26*
X119296000Y-109982000D03*
X121496000Y-109982000D03*
M02*
